<svg width="136" height="118" viewBox="0 0 136 118" fill="none"  opacity="0.7" xmlns="http://www.w3.org/2000/svg">
<rect  width="136" height="118" rx="59" fill="#FB9A2B" fill-opacity="0.2"/>
<path d="M104.498 41.6347L105.062 41.268L105.291 40.7288L105.829 40.4263V34.2801C105.829 31.4952 103.57 29.2366 100.784 29.2366H34.1958C31.4093 29.2366 29.1508 31.4952 29.1508 34.2801V41.3736L32.9508 42.5903L32.1758 45.0039L31.3914 44.9644L38.6203 54.9536H96.0053L104.363 43.8207L104.498 41.6347Z" fill="#FB9A2B"/>
<path d="M104.498 41.6347L105.062 41.268L105.291 40.7288L105.829 40.4263V34.2801C105.829 31.4952 103.57 29.2366 100.784 29.2366H34.1958C31.4093 29.2366 29.1508 31.4952 29.1508 34.2801V41.3736L32.9508 42.5903L32.1758 45.0039L31.3914 44.9644L38.6203 54.9536H96.0053L104.363 43.8207L104.498 41.6347Z" fill="#FB9A2B"/>
<path d="M34.1958 29.2366C31.4093 29.2366 29.1508 31.4952 29.1508 34.2801V41.3736L32.9508 42.5903L32.1758 45.0039L31.3914 44.9644L38.6203 54.9536H38.7804V40.7598V37.9517C38.7804 36.7617 40.0049 35.9495 41.0913 36.4352C41.8026 36.7533 42.5926 36.926 43.4232 36.9153C46.482 36.8759 48.908 34.3095 48.908 31.2504V29.2366H34.1958Z" fill="#f78f1e"/>
<path d="M105.829 87.875C105.829 91.6087 103.57 93.8672 100.784 93.8672H34.1958C31.4093 93.8672 29.1508 91.6087 29.1508 88.8222V41.3737L105.829 40.4265V87.875Z" fill="#F9F7F8"/>
<path d="M38.7802 41.2547L29.1508 41.3736V88.8221C29.1508 91.6085 31.4093 93.8671 34.1958 93.8671H38.7802V41.2547Z" fill="#EFEDEF"/>
<path d="M85.2613 82.8452C95.0757 73.0309 95.0757 57.1187 85.2613 47.3044C75.447 37.4901 59.5348 37.4901 49.7205 47.3044C39.9062 57.1187 39.9062 73.0309 49.7205 82.8452C59.5348 92.6595 75.447 92.6595 85.2613 82.8452Z" fill="#B3E5EE"/>
<path d="M49.4656 65.0755C49.4656 52.4212 58.8698 41.9205 71.054 40.1903C69.8938 40.0256 68.705 39.9407 67.5001 39.9407C53.6406 39.9407 42.3651 51.2162 42.3651 65.0757C42.3651 78.9352 53.6406 90.2107 67.5001 90.2107C68.705 90.2107 69.8922 90.1252 71.0525 89.9605C58.8683 88.2299 49.4656 77.73 49.4656 65.0755Z" fill="#86D7E5"/>
<path d="M53.9964 55.575C52.1026 58.2618 50.9899 61.5386 50.9899 65.0755C50.9899 74.1938 58.3817 81.5857 67.5 81.5857C76.6183 81.5857 84.0102 74.1938 84.0102 65.0755C84.0102 55.9572 76.6183 48.5654 67.5 48.5654C63.7072 48.5654 60.2138 49.8453 57.4261 51.9954" fill="#FBE98C"/>
<path d="M67.5 73.1822C71.9772 73.1822 75.6067 69.5527 75.6067 65.0755C75.6067 60.5983 71.9772 56.9688 67.5 56.9688C63.0228 56.9688 59.3933 60.5983 59.3933 65.0755C59.3933 69.5527 63.0228 73.1822 67.5 73.1822Z" fill="#FB9A2B"/>
<path d="M86.0839 46.383C85.6294 45.9308 84.8943 45.9325 84.4421 46.3873L80.9594 49.8885C80.9542 49.8935 80.9487 49.8978 80.9436 49.9029L66.6661 64.2562C66.214 64.7108 66.2158 65.4458 66.6705 65.898C66.897 66.1234 67.1931 66.2359 67.4892 66.2359C67.7874 66.2359 68.0855 66.1219 68.3123 65.8937L82.5756 51.5546C82.5808 51.5497 82.5863 51.5455 82.5913 51.5404L86.0883 48.0248C86.5404 47.5703 86.5384 46.8352 86.0839 46.383Z" fill="#FBE5C6"/>
<path d="M61.9425 29.2366V31.3585C61.9425 34.4229 64.4356 36.916 67.5001 36.916C70.5645 36.916 73.0576 34.4229 73.0576 31.3585V29.2366H61.9425Z" fill="#f78f1e"/>
<path d="M67.5 33.82C66.1405 33.82 65.0385 32.718 65.0385 31.3585V24.9692C65.0385 23.6097 66.1405 22.5077 67.5 22.5077C68.8594 22.5077 69.9615 23.6097 69.9615 24.9692V31.3585C69.9615 32.718 68.8594 33.82 67.5 33.82Z" fill="#E4E1E5"/>
<path d="M49.8678 29.2366V31.3585C49.8678 34.4229 52.3609 36.916 55.4254 36.916C58.4898 36.916 60.9829 34.4229 60.9829 31.3585V29.2366H49.8678Z" fill="#f78f1e"/>
<path d="M55.4253 33.82C54.0658 33.82 52.9637 32.718 52.9637 31.3585V24.9692C52.9637 23.6097 54.0658 22.5077 55.4253 22.5077C56.7847 22.5077 57.8868 23.6097 57.8868 24.9692V31.3585C57.8868 32.718 56.7847 33.82 55.4253 33.82Z" fill="#E4E1E5"/>
<path d="M43.3504 33.82C41.991 33.82 40.8889 32.718 40.8889 31.3585V24.9692C40.8889 23.6097 41.991 22.5077 43.3504 22.5077C44.7099 22.5077 45.8119 23.6097 45.8119 24.9692V31.3585C45.8119 32.718 44.7099 33.82 43.3504 33.82Z" fill="#E4E1E5"/>
<path d="M74.0173 29.2366V31.3585C74.0173 34.4229 76.5103 36.916 79.5747 36.916C82.6392 36.916 85.1323 34.4229 85.1323 31.3585V29.2366H74.0173Z" fill="#f78f1e"/>
<path d="M79.5748 33.82C80.9343 33.82 82.0363 32.718 82.0363 31.3585V24.9692C82.0363 23.6097 80.9343 22.5077 79.5748 22.5077C78.2153 22.5077 77.1133 23.6097 77.1133 24.9692V31.3585C77.1133 32.718 78.2155 33.82 79.5748 33.82Z" fill="#E4E1E5"/>
<path d="M97.2072 29.2366H86.0919V31.4884C86.0919 34.5528 88.585 37.0459 91.6495 37.0459C94.7139 37.0459 97.207 34.5528 97.207 31.4884V29.2366H97.2072Z" fill="#f78f1e"/>
<path d="M91.6496 33.9499C93.0091 33.9499 94.1111 32.8478 94.1111 31.4884V25.0991C94.1111 23.7396 93.0091 22.6375 91.6496 22.6375C90.2901 22.6375 89.1881 23.7396 89.1881 25.0991V31.4884C89.1881 32.8478 90.2901 33.9499 91.6496 33.9499Z" fill="#E4E1E5"/>
<path d="M88.0019 44.4583L86.0809 39.7539C85.7914 39.0449 84.8718 38.8607 84.3316 39.4025L79.734 44.0187C79.4321 44.3237 79.3392 44.7803 79.5017 45.1782L81.765 50.7201H85.3621L88.2809 46.8784L88.0019 44.4583Z" fill="#F5C274"/>
<path d="M92.7143 46.3608C93.4248 46.6472 93.6121 47.5652 93.0718 48.107L88.4758 52.7232C88.1724 53.0282 87.7157 53.1211 87.3163 52.9601L81.7682 50.7216L85.2652 47.2061L85.2714 47.1999L88.0021 44.4583L92.7143 46.3608Z" fill="#F3B658"/>
<path d="M90.6467 55.5239C90.0435 55.7408 89.73 56.4058 89.9469 57.0092C90.8757 59.5937 91.3467 62.3077 91.3467 65.0755C91.3467 68.6515 90.5738 72.0907 89.0495 75.2982C88.7744 75.8773 89.0207 76.5699 89.5998 76.8452C89.7608 76.9216 89.9305 76.9578 90.0975 76.9578C90.5317 76.9578 90.9481 76.7131 91.1469 76.2948C92.8203 72.7735 93.6688 68.999 93.6688 65.0755C93.6688 62.0391 93.1518 59.0608 92.1319 56.2238C91.9152 55.6204 91.2497 55.3077 90.6467 55.5239Z" fill="black"/>
<path d="M88.2021 79.1553C87.6894 78.7701 86.9615 78.8734 86.5764 79.3861C84.3995 82.2829 81.5484 84.683 78.3307 86.3264C74.9584 88.0489 71.3145 88.9222 67.4999 88.9222C54.3508 88.9222 43.6532 78.2248 43.6532 65.0756C43.6532 51.9263 54.3507 41.2289 67.4999 41.2289C70.219 41.2289 72.8889 41.6843 75.4352 42.5828C76.0396 42.7961 76.7029 42.4789 76.9162 41.8741C77.1297 41.2694 76.8124 40.6063 76.2077 40.3929C73.4126 39.4068 70.4829 38.9068 67.4999 38.9068C53.0705 38.9068 41.3312 50.6461 41.3312 65.0756C41.3312 79.505 53.0703 91.2443 67.4999 91.2443C71.6851 91.2443 75.6845 90.2854 79.3867 88.3944C82.9171 86.5912 86.0451 83.9585 88.4327 80.781C88.818 80.2683 88.7146 79.5406 88.2021 79.1553Z" fill="black"/>
<path d="M93.1496 45.2842L88.8911 43.5654L87.155 39.3143C86.8716 38.6201 86.2635 38.1178 85.5283 37.9704C84.7938 37.8234 84.0387 38.0522 83.5094 38.5834L78.9122 43.1996C78.278 43.8363 78.0879 44.7851 78.4276 45.617L80.4011 50.4495L79.1008 51.7567C75.9945 49.0475 71.9356 47.4042 67.4999 47.4042C63.5597 47.4042 59.831 48.6739 56.7168 51.076C56.2091 51.4676 56.115 52.1966 56.5066 52.7044C56.8981 53.2121 57.6274 53.3064 58.135 52.9146C60.8392 50.8288 64.0775 49.7263 67.4999 49.7263C71.2975 49.7263 74.7769 51.1133 77.4596 53.4064L73.1513 57.7378C71.5858 56.5292 69.6261 55.8078 67.5001 55.8078C62.3899 55.8078 58.2323 59.9652 58.2323 65.0755C58.2323 70.1859 62.3897 74.3433 67.5001 74.3433C72.6102 74.3433 76.7676 70.1859 76.7676 65.0755C76.7676 62.9267 76.0304 60.948 74.7985 59.3745L79.1073 55.043C81.4375 57.7353 82.849 61.2437 82.849 65.0755C82.849 73.5391 75.9636 80.4247 67.5001 80.4247C59.0365 80.4247 52.1509 73.5391 52.1509 65.0755C52.1509 61.8916 53.1172 58.8376 54.9454 56.2438C55.3148 55.7196 55.1894 54.9953 54.6652 54.6259C54.1412 54.2566 53.4167 54.3818 53.0474 54.9061C50.9418 57.8935 49.8287 61.4101 49.8287 65.0755C49.8287 74.8194 57.756 82.7467 67.4999 82.7467C77.2436 82.7467 85.1709 74.8194 85.1709 65.0755C85.1709 60.6013 83.4986 56.5108 80.7471 53.3943L82.0482 52.0864L86.8821 54.0374C87.1538 54.147 87.4375 54.2004 87.7185 54.2004C88.3001 54.2004 88.8701 53.9722 89.2975 53.5431L93.895 48.9267C94.4239 48.3954 94.6501 47.6398 94.4996 46.9053C94.3491 46.1708 93.8448 45.5649 93.1496 45.2842ZM85.0576 40.3199L86.636 44.1847L84.4492 46.3804C84.4489 46.3807 84.4486 46.381 84.4481 46.3813L84.3656 46.4643L82.1786 48.6601L80.6004 44.7953L85.0576 40.3199ZM74.4456 65.0755C74.4456 68.9054 71.3299 72.0212 67.5001 72.0212C63.6702 72.0212 60.5544 68.9055 60.5544 65.0755C60.5544 61.2456 63.6701 58.1299 67.5001 58.1299C68.9874 58.1299 70.3659 58.6014 71.4972 59.4005L66.6666 64.2566C66.2144 64.7113 66.2163 65.4465 66.6709 65.8986C66.8974 66.124 67.1935 66.2366 67.4898 66.2366C67.788 66.2366 68.0861 66.1225 68.3129 65.8945L73.1452 61.0366C73.9624 62.1756 74.4456 63.5698 74.4456 65.0755ZM87.6953 51.8615L83.8258 50.2997L86.0678 48.0459L88.2812 45.8234L92.1526 47.386L87.6953 51.8615Z" fill="black"/>
<path d="M100.794 28.075H95.2722V25.0991C95.2722 23.1016 93.647 21.4765 91.6496 21.4765C89.6522 21.4765 88.0271 23.1016 88.0271 25.0991V28.0751H83.1974V25.0991C83.1974 23.1016 81.5723 21.4765 79.5749 21.4765C77.5775 21.4765 75.9525 23.1016 75.9525 25.0991V28.0751H71.1228V25.0991C71.1228 23.1016 69.4977 21.4765 67.5003 21.4765C65.5029 21.4765 63.8778 23.1016 63.8778 25.0991V28.0751H59.0479V25.0991C59.0479 23.1016 57.4228 21.4765 55.4254 21.4765C53.428 21.4765 51.8029 23.1016 51.8029 25.0991V28.0751H46.973V25.0991C46.973 23.1016 45.3479 21.4765 43.3505 21.4765C41.3531 21.4765 39.7278 23.1015 39.7278 25.0991V28.0751H34.2059C30.784 28.075 28 30.8589 28 34.2809V89.3176C28 92.7395 30.784 95.5235 34.2059 95.5235H100.794C104.216 95.5235 107 92.7395 107 89.3176V34.2809C107 30.8589 104.216 28.075 100.794 28.075ZM90.3491 25.0991C90.3491 24.382 90.9326 23.7986 91.6496 23.7986C92.3667 23.7986 92.9501 24.382 92.9501 25.0991V31.4884C92.9501 32.2054 92.3667 32.7889 91.6496 32.7889C90.9326 32.7889 90.3491 32.2054 90.3491 31.4884V25.0991ZM78.2744 25.0991C78.2744 24.382 78.8579 23.7986 79.5747 23.7986C80.2919 23.7986 80.8752 24.382 80.8752 25.0991V31.4884C80.8752 32.2054 80.2918 32.7889 79.5747 32.7889C78.8577 32.7889 78.2744 32.2054 78.2744 31.4884V25.0991ZM66.1995 25.0991C66.1995 24.382 66.783 23.7986 67.5 23.7986C68.2172 23.7986 68.8005 24.382 68.8005 25.0991V31.4884C68.8005 32.2054 68.217 32.7889 67.5 32.7889C66.783 32.7889 66.1995 32.2054 66.1995 31.4884V25.0991ZM54.1248 25.0991C54.1248 24.382 54.7082 23.7986 55.4253 23.7986C56.1423 23.7986 56.7258 24.382 56.7258 25.0991V31.4884C56.7258 32.2054 56.1423 32.7889 55.4253 32.7889C54.7082 32.7889 54.1248 32.2054 54.1248 31.4884V25.0991ZM42.0499 25.0991C42.0499 24.382 42.6333 23.7986 43.3504 23.7986C44.0674 23.7986 44.6509 24.382 44.6509 25.0991V31.4884C44.6509 32.2054 44.0674 32.7889 43.3504 32.7889C42.6333 32.7889 42.0499 32.2054 42.0499 31.4884V25.0991ZM100.794 93.2014H34.2059C32.0643 93.2014 30.322 91.4591 30.322 89.3176V43.0297H49.065C49.7062 43.0297 50.2261 42.5098 50.2261 41.8686C50.2261 41.2275 49.7062 40.7076 49.065 40.7076H30.322V34.2809C30.322 32.1393 32.0643 30.397 34.2059 30.397H39.7278V31.4884C39.7278 33.4858 41.3529 35.1109 43.3504 35.1109C45.3478 35.1109 46.9729 33.4858 46.9729 31.4884V30.397H51.8027V31.4884C51.8027 33.4858 53.4278 35.1109 55.4253 35.1109C57.4227 35.1109 59.0478 33.4858 59.0478 31.4884V30.397H63.8776V31.4884C63.8776 33.4858 65.5027 35.1109 67.5002 35.1109C69.4976 35.1109 71.1227 33.4858 71.1227 31.4884V30.397H75.9524V31.4884C75.9524 33.4858 77.5773 35.1109 79.5747 35.1109C81.5722 35.1109 83.1973 33.4858 83.1973 31.4884V30.397H88.027V31.4884C88.027 33.4858 89.6521 35.1109 91.6495 35.1109C93.6469 35.1109 95.272 33.4858 95.272 31.4884V30.397H100.794C102.936 30.397 104.678 32.1393 104.678 34.2809V40.7076H93.3844C92.743 40.7076 92.2233 41.2275 92.2233 41.8686C92.2233 42.5098 92.743 43.0297 93.3844 43.0297H104.678V89.3177C104.678 91.4591 102.936 93.2014 100.794 93.2014Z" fill="black"/>
<defs>
<clipPath id="clip0">
<rect width="79" height="79" fill="white" transform="translate(28 19)"/>
</clipPath>
</defs>
</svg>
