<svg width="137" height="118" viewBox="0 0 137 118" fill="none"  opacity="0.7"  xmlns="http://www.w3.org/2000/svg">
<rect opacity="0.5" width="137" height="118" rx="59" fill="#FB9A2B" fill-opacity="0.2"/>
<path d="M63.2966 69.573L60.6733 81.3505H74.3267L71.7034 69.573" fill="#FFCB7C"/>
<path d="M67.5 69.5859C56.9516 69.5859 48.4004 61.1457 48.4004 50.7343V25.4844H86.5996V50.7343C86.5996 61.1457 78.0484 69.5859 67.5 69.5859Z" fill="#FFD89E"/>
<path d="M68.7182 36.7634L71.3174 40.9499L76.1551 42.095C77.193 42.3406 77.6014 43.5817 76.908 44.3825L73.6765 48.1141L74.0678 53.0077C74.1518 54.0576 73.0825 54.8245 72.0967 54.4214L67.5 52.5417L62.9033 54.4214C61.9175 54.8244 60.8482 54.0576 60.9321 53.0077L61.3234 48.1141L58.092 44.3825C57.3986 43.5817 57.8072 42.3406 58.845 42.095L63.6828 40.9499L66.2818 36.7634C66.8392 35.8657 68.1608 35.8657 68.7182 36.7634Z" fill="#FBE98C"/>
<path d="M72.6485 56.0157C72.2689 56.0157 71.8866 55.9421 71.521 55.7926L67.5001 54.1484L63.4789 55.7926C62.5289 56.1814 61.4647 56.057 60.6326 55.4603C59.8005 54.8636 59.352 53.903 59.4329 52.8908L59.7752 48.6106L56.9489 45.347C56.2805 44.5751 56.0713 43.5378 56.389 42.5719C56.707 41.6062 57.494 40.8883 58.4944 40.6517L62.726 39.6502L64.9997 35.9881C65.5368 35.1227 66.4715 34.606 67.4999 34.6057C68.5283 34.6057 69.4632 35.1224 70.0007 35.988V35.9881L72.2742 39.6502L76.506 40.6517C77.5063 40.8885 78.2934 41.6065 78.6112 42.5722C78.9291 43.5379 78.7199 44.5754 78.0513 45.3472L75.225 48.6108L75.5672 52.8908C75.6482 53.9029 75.1998 54.8634 74.3675 55.4603C73.8556 55.8274 73.2555 56.0157 72.6485 56.0157ZM59.315 43.5103L62.4666 47.1497C62.7261 47.4493 62.854 47.8382 62.8226 48.2309L62.4409 53.0037L66.9244 51.1703C67.293 51.0196 67.7071 51.0195 68.0756 51.1703L72.559 53.0037L72.1775 48.2309C72.1461 47.8382 72.2742 47.4491 72.5335 47.1497L75.6849 43.5103L70.9667 42.3936C70.5787 42.3018 70.2435 42.0616 70.0352 41.7257L67.5001 37.6422L64.9651 41.7255C64.7566 42.0614 64.4216 42.3016 64.0335 42.3935L59.315 43.5103Z" fill="black"/>
<path d="M44.8481 89.933V98.5156H90.1518V89.933" fill="#f78f1e"/>
<path d="M83.0905 89.933H90.1518V81.3505H44.8481V89.933H68.502" fill="#FB9A2B"/>
<path d="M96.2247 26.9705H88.1034V25.4844C88.1034 24.6646 87.43 24 86.5995 24H48.4003C47.5697 24 46.8964 24.6646 46.8964 25.4844V26.9705H38.7751C37.9445 26.9705 37.2712 27.6352 37.2712 28.4549V42.6782C37.2712 48.2259 41.576 52.7992 47.0617 53.3164C48.0992 61.3628 53.9193 67.9562 61.6117 70.2242L59.4639 79.8659H44.8481C44.0175 79.8659 43.3442 80.5305 43.3442 81.3503V98.5156C43.3442 99.3353 44.0175 100 44.8481 100H90.1517C90.9824 100 91.6557 99.3353 91.6557 98.5156V81.3503C91.6557 80.5305 90.9824 79.8659 90.1517 79.8659H75.5359L73.3882 70.2242C81.0805 67.9562 86.9006 61.3628 87.9383 53.3164C93.424 52.7992 97.7287 48.2259 97.7287 42.6782V28.4549C97.7286 27.6351 97.0551 26.9705 96.2247 26.9705ZM40.2791 42.6782V29.9393H46.8964V50.3056C43.1533 49.7328 40.2791 46.5306 40.2791 42.6782ZM88.6478 88.4487H83.0905C82.26 88.4487 81.5865 89.1134 81.5865 89.9331C81.5865 90.7528 82.26 91.4175 83.0905 91.4175H88.6478V97.0312H46.352V91.4175H68.502C69.3324 91.4175 70.0059 90.7528 70.0059 89.9331C70.0059 89.1134 69.3324 88.4487 68.502 88.4487H46.352V82.8348H88.6478V88.4487ZM72.4562 79.8659H62.5436L64.5492 70.8619C65.5131 70.9989 66.4982 71.0701 67.4999 71.0701C68.5015 71.0701 69.4867 70.9989 70.4504 70.8619L72.4562 79.8659ZM85.0956 50.7343C85.0956 60.3106 77.2022 68.1015 67.4999 68.1015C57.7976 68.1015 49.9042 60.3106 49.9042 50.7343V26.9688H85.0956V50.7343ZM94.7208 42.6782C94.7208 46.5306 91.8465 49.7328 88.1034 50.3056V29.9393H94.7208V42.6782Z" fill="black"/>
<path d="M75.7715 91.4173C75.1313 91.4173 74.5568 91.0036 74.3483 90.4096C74.1521 89.8504 74.3291 89.2065 74.7798 88.8173C75.2728 88.3914 76.0087 88.3337 76.5651 88.6735C77.0843 88.9905 77.3596 89.6066 77.2498 90.1987C77.121 90.8944 76.4896 91.4173 75.7715 91.4173Z" fill="black"/>
</svg>
