<svg width="137" height="118" viewBox="0 0 137 118" fill="none"  opacity="0.7"  xmlns="http://www.w3.org/2000/svg">
<rect width="137" height="118" rx="59" fill="#FB9A2B" fill-opacity="0.2"/>
<path d="M46.2318 76.4099C44.3319 76.4099 42.9088 77.2599 41.9292 78.3578C41.9127 78.3742 41.8976 78.3916 41.8826 78.4094C40.9001 77.2867 39.4621 76.4099 37.533 76.4099C34.096 76.4099 31.4301 79.251 31.4301 82.8988C31.4301 90.0253 41.8826 94.9994 41.8826 94.9994L41.9292 94.998C41.9292 94.998 52.3347 90.0251 52.3347 82.8988C52.3347 79.251 49.6688 76.4099 46.2318 76.4099Z" fill="#FB9A2B"/>
<path d="M110.284 61.9209H32.7158C31.1195 61.9209 29.8256 60.6269 29.8256 59.0307V28.6374C29.8256 27.0412 31.1195 25.7472 32.7158 25.7472H110.284C111.88 25.7472 113.174 27.0412 113.174 28.6374V59.0307C113.174 60.6269 111.88 61.9209 110.284 61.9209Z" fill="#FB9A2B"/>
<path d="M81.122 73.3952L72.3012 73.3627V71.7192V58.4298C72.3012 56.5185 70.7474 54.9694 68.8307 54.9694C66.914 54.9694 65.3602 56.5187 65.3602 58.4298V71.5255V77.1848C65.3595 74.5109 63.1828 72.3435 60.4981 72.3435C59.3499 72.3435 58.4191 73.2715 58.4191 74.4162C58.4191 74.4162 58.4194 86.0489 58.4201 87.1602C58.4225 91.5551 61.4517 95.3698 65.731 96.371C67.7415 96.8413 69.3809 97.4 69.3809 97.9717V101.301H78.7502V98.0235C78.7502 97.8216 80.5913 97.2537 82.7645 96.6534C86.8681 95.52 89.712 91.7882 89.712 87.5311V82.0167C89.7117 77.2675 85.871 73.4127 81.122 73.3952Z" fill="#FFDCD5"/>
<path d="M101.218 17.6992C99.6679 17.6992 98.5068 18.3927 97.7075 19.2883C97.6941 19.3018 97.6818 19.3159 97.6696 19.3305C96.8681 18.4146 95.6948 17.6992 94.1208 17.6992C91.3166 17.6992 89.1417 20.0173 89.1417 22.9931C89.1417 28.8074 97.6696 32.8658 97.6696 32.8658L97.7075 32.8646C97.7075 32.8646 106.197 28.8074 106.197 22.9931C106.197 20.0173 104.022 17.6992 101.218 17.6992Z" fill="#FAF7F5"/>
<path d="M46.232 74.7107C44.6166 74.7107 43.1384 75.1904 41.883 76.1112C40.6275 75.1902 39.15 74.7107 37.533 74.7107C33.1581 74.7107 29.7311 78.3073 29.7311 82.8988C29.7311 91.0052 40.6863 96.3119 41.1527 96.5338C41.3811 96.6424 41.6305 96.6986 41.8829 96.6986C41.9 96.6986 41.9172 96.6984 41.9345 96.6979L41.9809 96.6966C42.2169 96.6894 42.4489 96.633 42.662 96.5312C43.1264 96.3093 54.0342 91.0033 54.0342 82.8988C54.0342 78.3073 50.607 74.7107 46.232 74.7107ZM41.9031 93.1031C38.9206 91.5002 33.1295 87.4486 33.1295 82.8986C33.1295 80.1681 35.0226 78.109 37.533 78.109C38.7466 78.109 39.7799 78.5866 40.604 79.5284C40.9315 79.9024 41.4091 80.1139 41.9034 80.1083C42.3908 80.1023 42.8518 79.8874 43.1695 79.519C43.1789 79.509 43.188 79.499 43.197 79.4889C44.0142 78.5732 45.0353 78.109 46.2319 78.109C48.7423 78.109 50.6355 80.1681 50.6355 82.8986C50.6357 87.4506 44.8701 91.5017 41.9031 93.1031Z" fill="black"/>
<path d="M110.284 24.048H107.823C107.871 23.7032 107.896 23.3515 107.896 22.9931C107.896 19.0718 104.963 16 101.218 16C99.9094 16 98.7062 16.3665 97.6698 17.0719C96.6335 16.3664 95.4306 16 94.1208 16C90.3759 16 87.4424 19.0718 87.4424 22.9931C87.4424 23.3515 87.4677 23.7032 87.5156 24.048H79.1815C78.2432 24.048 77.4823 24.8088 77.4823 25.7472C77.4823 26.6857 78.2432 27.4464 79.1815 27.4464H88.7641C91.3042 31.6731 96.6445 34.2598 96.9395 34.4002C97.1679 34.5087 97.4173 34.565 97.6697 34.565C97.687 34.565 97.7043 34.5648 97.7217 34.5641L97.7597 34.5629C97.9958 34.5556 98.2275 34.4994 98.4404 34.3976C98.7341 34.2573 104.05 31.6712 106.58 27.4463H110.284C110.941 27.4463 111.475 27.9805 111.475 28.6373V59.0305C111.475 59.6873 110.941 60.2215 110.284 60.2215H74.0002V58.4297C74.0002 55.5845 71.6811 53.2698 68.8305 53.2698C65.9799 53.2698 63.6607 55.5845 63.6607 58.4297V60.2215H32.716C32.0594 60.2215 31.525 59.6873 31.525 59.0305V28.6374C31.525 27.9807 32.0594 27.4464 32.716 27.4464H63.8185C64.757 27.4464 65.5177 26.6857 65.5177 25.7472C65.5177 24.8088 64.757 24.048 63.8185 24.048H32.716C30.1854 24.048 28.1266 26.1068 28.1266 28.6374V59.0307C28.1266 61.5613 30.1854 63.6201 32.716 63.6201H63.6607V71.4559C62.7222 70.9388 61.6437 70.6443 60.4977 70.6443C58.4143 70.6443 56.7195 72.3364 56.7195 74.4164C56.7195 74.4164 56.72 86.0496 56.7205 87.1612C56.7236 92.3709 60.2695 96.8385 65.3437 98.0255C66.6112 98.3221 67.3094 98.5581 67.6815 98.7107V101.301C67.6815 102.239 68.4424 103 69.3807 103H78.7501C79.6885 103 80.4493 102.239 80.4493 101.301V99.1095C80.9619 98.9397 81.8131 98.6791 83.2168 98.2913C88.0416 96.9589 91.4111 92.5342 91.4111 87.5312V82.0167C91.4111 76.3467 86.7984 71.7169 81.1285 71.696L74.0004 71.6698V63.6203H110.284C112.815 63.6203 114.874 61.5615 114.874 59.0308V28.6374C114.873 26.107 112.815 24.048 110.284 24.048ZM97.6841 30.9637C95.2688 29.6429 90.841 26.4968 90.841 22.9933C90.841 20.9439 92.2512 19.3986 94.121 19.3986C95.0169 19.3986 95.7808 19.7522 96.391 20.4497C96.7137 20.8186 97.18 21.03 97.6697 21.03H97.6865C98.1726 21.0253 98.6331 20.8124 98.9517 20.4462C98.9597 20.4375 98.9677 20.4287 98.9757 20.42C99.5803 19.7424 100.335 19.3988 101.218 19.3988C103.088 19.3988 104.498 20.9442 104.498 22.9935C104.498 26.4832 100.086 29.6383 97.6841 30.9637ZM81.1157 75.0944C84.9186 75.1085 88.0125 78.2137 88.0125 82.0167V87.5312C88.0125 91.0108 85.6684 94.0886 82.312 95.0155C81.078 95.3564 80.1009 95.6454 79.4082 95.8748C78.3032 96.2405 77.0507 96.6551 77.0507 98.0237V99.6016H71.0798V97.9717C71.0798 96.0375 68.7327 95.3282 66.1176 94.7165C62.5878 93.8908 60.1208 90.7831 60.1188 87.1595C60.1183 86.0483 60.1178 74.4162 60.1178 74.4162C60.1178 74.2103 60.2882 74.0428 60.4976 74.0428C62.2413 74.0428 63.66 75.4524 63.6605 77.1853V83.809C63.6605 84.7475 64.4214 85.5082 65.3597 85.5082C66.298 85.5082 67.0589 84.7475 67.0589 83.809V58.4298C67.0589 57.4586 67.8536 56.6684 68.8304 56.6684C69.8071 56.6684 70.6016 57.4586 70.6016 58.4298V73.3627C70.6016 74.2987 71.3586 75.0584 72.2946 75.062L81.1157 75.0944Z" fill="black"/>
<path d="M77.5428 50.7655C77.742 50.8413 77.9462 50.8773 78.1474 50.8773C78.832 50.8773 79.4774 50.4603 79.7357 49.7823L80.3183 48.2527H84.4201L84.9956 49.7776C85.3269 50.6556 86.3076 51.0986 87.1854 50.7674C88.0635 50.436 88.5065 49.4556 88.1752 48.5776L84.1988 38.0407C84.1931 38.0249 84.1868 38.0093 84.1805 37.9937C83.8797 37.2632 83.1752 36.7915 82.3853 36.7915H82.3829C81.5921 36.7923 80.8876 37.2661 80.5882 37.9981C80.5831 38.0108 80.578 38.0236 80.573 38.0365L76.5602 48.5728C76.2256 49.4498 76.6657 50.4314 77.5428 50.7655ZM83.1373 44.8543H81.6125L82.3785 42.8432L83.1373 44.8543Z" fill="black"/>
<path d="M64.8484 36.8883C64.1383 37.1095 63.6549 37.7668 63.6549 38.5106V49.1776C63.6549 50.116 64.4158 50.8768 65.3541 50.8768C66.2924 50.8768 67.0533 50.116 67.0533 49.1776V43.9615L71.169 49.9213C71.6542 50.6216 72.4681 50.9179 73.2443 50.6756C74.0329 50.4292 74.5423 49.6999 74.5423 48.8012L74.4424 38.4744C74.4332 37.5415 73.6744 36.7916 72.7435 36.7916C72.7381 36.7916 72.7323 36.7916 72.7267 36.7916C71.7884 36.8006 71.035 37.5688 71.044 38.5072L71.0956 43.8344L66.7524 37.5452C66.3296 36.9332 65.558 36.6671 64.8484 36.8883Z" fill="black"/>
<path d="M104.68 40.2874C105.619 40.2874 106.38 39.5267 106.38 38.5882C106.38 37.6497 105.619 36.889 104.68 36.889H100.218C99.2798 36.889 98.5189 37.6497 98.5189 38.5882V49.1776C98.5189 50.1161 99.2798 50.8768 100.218 50.8768H104.68C105.619 50.8768 106.38 50.1161 106.38 49.1776C106.38 48.2391 105.619 47.4784 104.68 47.4784H101.917V45.582H104.351C105.289 45.582 106.05 44.8213 106.05 43.8828C106.05 42.9443 105.289 42.1836 104.351 42.1836H101.917V40.2873H104.68V40.2874Z" fill="black"/>
<path d="M38.3407 50.8768H38.3471C38.4358 50.8765 40.533 50.8683 41.3726 50.8537C44.717 50.7952 47.1443 47.9094 47.1443 43.9921C47.1443 39.8742 44.7783 37.1075 41.257 37.1075H38.3196C37.8684 37.1075 37.4356 37.287 37.1169 37.6064C36.7981 37.9259 36.6195 38.3588 36.6204 38.8101C36.6204 38.8103 36.628 42.7985 36.628 43.9809C36.628 45.423 36.6414 49.1839 36.6414 49.1839C36.6431 49.6347 36.8236 50.0663 37.1436 50.3837C37.462 50.6996 37.8924 50.8768 38.3407 50.8768ZM41.257 40.5059C43.5664 40.5059 43.7459 43.1742 43.7459 43.9921C43.7459 45.6949 42.9936 47.4264 41.3133 47.4558C41.0106 47.461 40.5257 47.4654 40.0344 47.469C40.0309 46.2835 40.0266 44.7773 40.0266 43.9807C40.0266 43.3112 40.0241 41.7423 40.022 40.5059H41.257Z" fill="black"/>
<path d="M92.6508 50.8768C93.5891 50.8768 94.35 50.1161 94.35 49.1776V40.1897H95.6137C96.552 40.1897 97.3129 39.429 97.3129 38.4905C97.3129 37.552 96.552 36.7913 95.6137 36.7913H89.7118C88.7735 36.7913 88.0126 37.552 88.0126 38.4905C88.0126 39.429 88.7735 40.1897 89.7118 40.1897H90.9517V49.1776C90.9515 50.1161 91.7123 50.8768 92.6508 50.8768Z" fill="black"/>
<path d="M48.4476 43.834C48.4476 47.7174 51.607 50.8768 55.4904 50.8768C59.3738 50.8768 62.533 47.7174 62.533 43.834C62.533 39.9506 59.3736 36.7913 55.4904 36.7913C51.607 36.7913 48.4476 39.9506 48.4476 43.834ZM59.1347 43.834C59.1347 45.8435 57.4999 47.4784 55.4906 47.4784C53.4811 47.4784 51.8462 45.8435 51.8462 43.834C51.8462 41.8245 53.4811 40.1897 55.4906 40.1897C57.4997 40.1897 59.1347 41.8247 59.1347 43.834Z" fill="black"/>
<path d="M69.9621 26.3975C70.2355 27.0539 70.9033 27.4772 71.6136 27.4437C72.3125 27.4108 72.9337 26.9321 73.1482 26.2668C73.3653 25.5929 73.1293 24.8285 72.5647 24.3991C71.99 23.9619 71.1895 23.9374 70.5874 24.3347C69.9173 24.7766 69.6597 25.6594 69.9621 26.3975Z" fill="black"/>
</svg>
