<svg width="136" height="118" viewBox="0 0 136 118" opacity="0.7" fill="none" xmlns="http://www.w3.org/2000/svg">
<rect opacity="0.5" width="136" height="118" rx="59" fill="#FB9A2B" fill-opacity="0.2"/>
<path d="M47.1824 39.8552C46.6755 39.4863 46.1921 39.0781 45.7394 38.6265C39.662 32.5637 41.4166 20.9837 41.4166 20.9837C41.4166 20.9837 53.0247 19.2333 59.1019 25.2961C63.7298 29.9127 63.8162 37.7286 63.5942 41.1945" fill="#B8ECBC"/>
<path d="M56.6871 98.2423L56.7987 98.2394C57.0067 98.234 60.1992 98.4729 63.6602 97.3655C67.1208 98.4729 70.3133 98.234 70.5213 98.2394L70.6329 98.2423H70.7444C75.9334 98.2423 83.4666 97.223 89.8857 84.2715C93.3707 77.2403 95.6223 68.8872 95.6223 62.9907C95.6223 49.5008 84.621 38.526 71.0988 38.526L71.0001 38.5265C69.9738 38.5383 68.9553 39.1819 67.9507 39.9989C65.4445 42.0373 61.8756 42.0373 59.3693 39.9989C58.3649 39.1819 57.3465 38.5383 56.32 38.5265L56.2213 38.526C42.6988 38.526 31.6975 49.5008 31.6975 62.9907C31.6975 68.8872 33.9493 77.2403 37.4342 84.2715C43.8534 97.223 51.3864 98.2423 56.5754 98.2423H56.6871Z" fill="#FB9A2B"/>
<path d="M95.0803 98.2485C106.248 98.2485 115.301 89.1229 115.301 77.866C115.301 66.6091 106.248 57.4836 95.0803 57.4836C83.9128 57.4836 74.8597 66.6091 74.8597 77.866C74.8597 89.1229 83.9128 98.2485 95.0803 98.2485Z" fill="#FAF7F5"/>
<path d="M103.201 73.7366H99.1754V69.6763C99.1754 68.5297 98.2533 67.6 97.1156 67.6H93.0448C91.9072 67.6 90.985 68.5295 90.985 69.6763V73.7366H86.9596C85.8219 73.7366 84.8998 74.6662 84.8998 75.8129V79.9194C84.8998 81.066 85.8219 81.9956 86.9596 81.9956H90.985V86.0559C90.985 87.2026 91.9072 88.1322 93.0448 88.1322H97.1156C98.2533 88.1322 99.1754 87.2027 99.1754 86.0559V81.9956H103.201C104.338 81.9956 105.261 81.0662 105.261 79.9194V75.8129C105.261 74.6662 104.338 73.7366 103.201 73.7366Z" fill="#FB9A2B"/>
<path d="M31.3678 64.9222C32.062 65.0636 32.7926 64.7367 33.1554 64.1299C33.5153 63.5278 33.464 62.7515 33.0297 62.2009C32.5775 61.6279 31.784 61.4098 31.1016 61.6665C30.447 61.9127 30.0011 62.5576 30.0001 63.257C29.9988 64.0595 30.5848 64.7633 31.3678 64.9222Z" fill="black"/>
<path d="M96.3201 55.8193C93.1181 44.6004 82.8487 36.8268 71.0886 36.8268L70.9805 36.8275C69.3413 36.8464 67.9272 37.8278 66.8784 38.6808C66.4103 39.0616 65.8965 39.3483 65.3592 39.5408V39.5163C65.3633 39.2149 65.3634 38.9036 65.3592 38.5838V33.3633C65.3592 29.8811 68.1921 27.0482 71.6743 27.0482C72.6128 27.0482 73.3735 26.2874 73.3735 25.3489C73.3735 24.4105 72.6128 23.6497 71.6743 23.6497C68.1122 23.6497 64.992 25.577 63.3012 28.4436C62.5694 26.8703 61.5937 25.3816 60.3021 24.0931C53.6942 17.5013 41.6719 19.2268 41.1631 19.3035C40.4264 19.4146 39.8481 19.9925 39.7365 20.7291C39.6602 21.2321 37.96 33.0228 44.3653 39.6525C43.0693 40.3119 41.8211 41.0837 40.6313 41.9641C36.1798 45.2578 32.9357 49.7652 31.2496 54.9986C30.9617 55.8919 31.4526 56.8492 32.3459 57.1369C33.2385 57.4244 34.1965 56.934 34.4842 56.0406C37.5319 46.5808 46.2674 40.2251 56.2114 40.2251L56.3006 40.2256C56.5418 40.2283 56.8276 40.3377 57.1098 40.4888C57.1414 40.5077 57.1737 40.5255 57.2063 40.542C57.6661 40.8037 58.1011 41.1575 58.2972 41.317C61.4048 43.8444 65.9155 43.8446 69.0229 41.3172C69.3525 41.049 70.3557 40.2332 71.0101 40.2258L71.0986 40.2253C81.0278 40.2253 89.7418 46.6 92.792 55.9039C81.7767 57.0601 73.1603 66.4685 73.1603 77.866C73.1603 84.209 75.8289 89.9359 80.0946 93.9673C76.7718 96.2121 73.5319 96.543 70.7443 96.543L70.5652 96.5408C70.5307 96.5399 70.4507 96.5404 70.3285 96.5447C67.6079 96.6424 65.4819 96.1644 64.1777 95.7471C63.8408 95.6393 63.479 95.6393 63.142 95.7471C61.8381 96.1644 59.7125 96.6424 56.991 96.5447C56.869 96.5404 56.7887 96.5396 56.7555 96.5408L56.5756 96.543C52.9523 96.543 45.4132 96.543 38.9569 83.5168C36.955 79.4777 35.3185 74.8666 34.3489 70.5324C34.1442 69.6165 33.2356 69.0399 32.3197 69.245C31.4039 69.45 30.8276 70.3584 31.0324 71.2742C32.0598 75.8664 33.7926 80.7501 35.9117 85.0258C42.4644 98.2461 50.3969 99.9414 56.5756 99.9414H56.687C56.7013 99.9414 56.7156 99.9412 56.7299 99.9409L56.8072 99.9389L56.8706 99.9409C59.2175 100.025 61.5528 99.7484 63.66 99.1412C65.5216 99.6777 67.5608 99.9555 69.6291 99.9555C69.902 99.9555 70.1756 99.9508 70.4492 99.9409L70.5124 99.9389L70.5897 99.9409C70.604 99.9412 70.6184 99.9414 70.6327 99.9414H70.7442C74.0979 99.9414 78.4535 99.4977 82.8429 96.178C86.3399 98.5572 90.5518 99.9475 95.08 99.9475C107.167 99.9475 117 90.0418 117 77.8658C117 66.1093 107.832 56.4691 96.3201 55.8193ZM59.0816 37.7046L51.0101 28.3192C50.3981 27.6075 49.3252 27.5268 48.6137 28.1389C47.9023 28.7508 47.8214 29.8237 48.4333 30.5351L53.9285 36.925C51.8307 37.1057 49.7818 37.5342 47.8129 38.2003C47.5038 37.9546 47.211 37.6944 46.9393 37.4236C42.6732 33.1674 42.7448 25.5636 42.9667 22.5344C46.0039 22.3126 53.6322 22.2397 57.902 26.4991C61.4827 30.0712 62.0024 36.0211 61.9573 39.5395C61.4214 39.3468 60.9086 39.0606 60.4416 38.6807C60.0394 38.3537 59.5835 38.008 59.0816 37.7046ZM56.8316 99.9383L56.8427 99.9382C56.8395 99.9382 56.8357 99.9382 56.8316 99.9383ZM70.4782 99.938L70.4879 99.9382C70.4844 99.9382 70.4811 99.9382 70.4782 99.938ZM95.0802 96.5493C84.8676 96.5493 76.5589 88.168 76.5589 77.866C76.5589 67.5642 84.8676 59.1828 95.0802 59.1828C105.293 59.1828 113.602 67.564 113.602 77.866C113.602 88.1679 105.293 96.5493 95.0802 96.5493Z" fill="black"/>
<path d="M103.201 72.0373H100.874V69.6761C100.874 67.5944 99.1881 65.9008 97.1154 65.9008H93.0448C90.9721 65.9008 89.2858 67.5944 89.2858 69.6761V72.0373H86.9595C84.8868 72.0373 83.2007 73.731 83.2007 75.8128V79.9193C83.2007 82.0011 84.887 83.6948 86.9595 83.6948H89.2858V86.0559C89.2858 88.1376 90.9721 89.8314 93.0448 89.8314H97.1154C99.1881 89.8314 100.874 88.1378 100.874 86.0559V83.6948H103.201C105.273 83.6948 106.96 82.0012 106.96 79.9193V75.8128C106.96 73.731 105.273 72.0373 103.201 72.0373ZM103.561 79.9192C103.561 80.1272 103.399 80.2962 103.201 80.2962H99.1752C98.2367 80.2962 97.476 81.057 97.476 81.9954V86.0557C97.476 86.2637 97.3142 86.4328 97.1154 86.4328H93.0448C92.846 86.4328 92.6842 86.2637 92.6842 86.0557V81.9954C92.6842 81.057 91.9235 80.2962 90.985 80.2962H86.9595C86.7607 80.2962 86.5991 80.1272 86.5991 79.9192V75.8127C86.5991 75.6047 86.7609 75.4356 86.9595 75.4356H90.985C91.9235 75.4356 92.6842 74.6749 92.6842 73.7364V69.6759C92.6842 69.4681 92.846 69.2991 93.0448 69.2991H97.1154C97.3142 69.2991 97.476 69.4681 97.476 69.6759V73.7364C97.476 74.6749 98.2367 75.4356 99.1752 75.4356H103.201C103.399 75.4356 103.561 75.6047 103.561 75.8127V79.9192Z" fill="black"/>
</svg>
