<svg width="134" height="118" viewBox="0 0 134 118" fill="none" opacity="0.7" xmlns="http://www.w3.org/2000/svg">
<rect  width="134" height="118" rx="59" fill="#FB9A2B" fill-opacity="0.2"/>
<path d="M69 71.8981C69 74.6659 68.145 76.8459 65.3914 76.8076C63.3888 76.7798 61.6753 75.7025 60.9266 73.9592C60.8372 73.7508 60.6361 73.6175 60.4102 73.6181C60.405 73.6181 60.4003 73.6181 60.3956 73.6181C56.9688 73.6181 54.9431 71.7289 54.9431 68.285C54.9431 67.8784 54.9822 67.4811 55.0563 67.0962C55.1011 66.8631 54.9967 66.6278 54.7913 66.5097C52.2292 65.0347 51.2427 63.18 51.2427 59.9998C51.2427 56.8195 52.2292 54.9645 54.7913 53.4898C54.9967 53.3717 55.101 53.1364 55.0563 52.903C54.9822 52.5183 54.9431 52.1212 54.9431 51.7145C54.9431 48.2706 56.9689 46.3814 60.3956 46.3814H60.4102C60.6361 46.382 60.8371 46.2487 60.9266 46.04C61.6753 44.297 63.3888 43.2198 65.3914 43.192C68.1453 43.154 69 45.334 69 48.1019" fill="#FB9A2B"/>
<path d="M69 48.1019C69 45.3341 69.855 43.154 72.6086 43.1923C74.6112 43.2201 76.3247 44.2975 77.0734 46.0406C77.1628 46.2491 77.3639 46.3823 77.5898 46.3817H77.6044C81.0312 46.3817 83.0569 48.2708 83.0569 51.7148C83.0569 52.1214 83.0178 52.5189 82.9437 52.9036C82.8989 53.1367 83.0033 53.372 83.2087 53.4901C85.7708 54.9651 86.7573 56.8198 86.7573 60C86.7573 63.1803 85.7708 65.0353 83.2087 66.51C83.0033 66.6281 82.8991 66.8634 82.9437 67.0969C83.0178 67.4816 83.0569 67.8786 83.0569 68.2853C83.0569 71.7292 81.0311 73.6184 77.6044 73.6184H77.5898C77.3639 73.6178 77.163 73.7511 77.0734 73.9598C76.3247 75.7028 74.6112 76.78 72.6086 76.8078C69.8547 76.8459 69 74.6659 69 71.8981" fill="#FB9A2B"/>
<path d="M94.01 60H107.438C107.438 38.7716 90.2284 21.5625 69 21.5625V34.99C82.8127 34.99 94.01 46.1873 94.01 60Z" fill="#FB9A2B"/>
<path d="M107.438 60H94.01C94.01 73.8127 82.8127 85.01 69 85.01V98.4375C90.2284 98.4375 107.438 81.2284 107.438 60Z" fill="#FAF7F5"/>
<path d="M69 34.99V21.5625C47.7716 21.5625 30.5625 38.7716 30.5625 60H43.99C43.99 46.1873 55.1873 34.99 69 34.99Z" fill="#FAF7F5"/>
<path d="M43.99 60H30.5625C30.5625 81.2284 47.7716 98.4375 69 98.4375V85.01C55.1873 85.01 43.99 73.8127 43.99 60Z" fill="#FB9A2B"/>
<path d="M88.3198 60C88.3198 56.4905 87.1939 54.2087 84.5801 52.4989C84.6062 52.2383 84.6194 51.9762 84.6194 51.7148C84.6194 47.6672 82.1847 45.0784 78.22 44.8376C77.1214 42.8761 75.0356 41.6634 72.6303 41.63C71.1926 41.612 70.0103 42.0467 69.117 42.9278C69.0773 42.967 69.0384 43.007 69.0001 43.0478C68.9619 43.007 68.923 42.967 68.8833 42.9278C67.9898 42.0467 66.8087 41.6086 65.3697 41.63C62.9648 41.6636 60.8795 42.8759 59.7801 44.8376C55.8155 45.0784 53.3808 47.667 53.3808 51.7148C53.3808 51.9764 53.3939 52.2384 53.42 52.4989C50.8067 54.208 49.6803 56.49 49.6803 60C49.6803 63.5095 50.8064 65.7914 53.42 67.5011C53.3939 67.7614 53.3808 68.0236 53.3808 68.2851C53.3808 72.3328 55.8153 74.9216 59.7801 75.1623C60.8789 77.1239 62.9647 78.3366 65.3698 78.37C65.4014 78.3705 65.4326 78.3706 65.464 78.3706C66.8594 78.3706 68.0094 77.9341 68.8833 77.0722C68.923 77.0331 68.9619 76.993 69.0001 76.9522C69.0384 76.993 69.0773 77.033 69.117 77.0722C69.9909 77.9341 71.1408 78.3708 72.5364 78.3706C72.5675 78.3706 72.599 78.3705 72.6306 78.37C75.0358 78.3364 77.1214 77.1237 78.2201 75.1623C82.185 74.9216 84.6195 72.333 84.6195 68.2851C84.6195 68.0237 84.6064 67.7617 84.5803 67.5012C87.1937 65.792 88.3198 63.5103 88.3198 60ZM65.4131 75.2451C64.0997 75.2269 63.0184 74.6058 62.4712 73.5701C62.7486 73.1114 63.2023 72.7795 63.7417 72.6619C64.5848 72.4781 65.1195 71.6458 64.9359 70.8026C64.7522 69.9595 63.9194 69.4251 63.0767 69.6086C61.6523 69.9189 60.4601 70.8055 59.7512 72.0281C57.5692 71.8339 56.5059 70.6042 56.5059 68.2848C56.5059 67.9848 56.5345 67.6844 56.5911 67.3911C56.7619 66.5026 56.3517 65.6039 55.5712 65.1553C53.5292 63.98 52.8055 62.6308 52.8055 59.9997C52.8055 57.3684 53.5292 56.0192 55.5703 54.8445C56.3514 54.3955 56.7617 53.4969 56.5909 52.6076C56.5347 52.3148 56.5059 52.0145 56.5059 51.7147C56.5059 49.1775 57.7784 47.9441 60.4062 47.9441H60.412C60.4389 47.9441 60.4658 47.9436 60.4926 47.9425C61.0692 48.2087 61.389 48.8653 61.219 49.5048C60.9973 50.3389 61.4936 51.1947 62.3275 51.4164C62.462 51.4523 62.597 51.4694 62.73 51.4694C63.4209 51.4694 64.053 51.0073 64.239 50.308C64.6862 48.6266 64.1092 46.908 62.8944 45.8219C63.4934 45.155 64.3819 44.7687 65.4134 44.7544C66.183 44.7425 66.5106 44.9764 66.6892 45.1525C67.1719 45.6286 67.4378 46.6759 67.4378 48.1016V71.8976C67.4378 73.3233 67.1719 74.3706 66.6891 74.8467C66.5103 75.023 66.187 75.2609 65.4131 75.2451ZM82.4301 65.155C81.6492 65.6039 81.2387 66.5023 81.4092 67.3919C81.4656 67.6853 81.4944 67.9858 81.4944 68.285C81.4944 70.8222 80.2219 72.0556 77.5941 72.0556H77.5883C77.5612 72.0556 77.5344 72.0561 77.5076 72.0572C76.9311 71.7909 76.6112 71.1344 76.7812 70.4948C77.003 69.6608 76.5067 68.805 75.6728 68.5833C74.8397 68.3614 73.983 68.8578 73.7612 69.6917C73.314 71.3731 73.8911 73.0917 75.1059 74.1778C74.507 74.8447 73.6186 75.2309 72.5869 75.2453C71.8175 75.2622 71.4895 75.0233 71.3111 74.8472C70.8283 74.3711 70.5625 73.3237 70.5625 71.8981V48.1019C70.5625 46.6762 70.8284 45.6289 71.3112 45.1528C71.4897 44.9767 71.8169 44.7426 72.5869 44.7547C73.9003 44.773 74.9814 45.3939 75.5289 46.43C75.2814 46.8395 74.8925 47.1484 74.422 47.2945C73.598 47.5503 73.137 48.4258 73.3928 49.25C73.6008 49.92 74.2181 50.3498 74.8847 50.3498C75.0381 50.3498 75.194 50.327 75.3483 50.2792C76.593 49.893 77.6155 49.0658 78.2494 47.9717C80.4312 48.1659 81.4944 49.3958 81.4944 51.715C81.4944 52.0144 81.4656 52.315 81.409 52.6092C81.2386 53.4976 81.6491 54.3962 82.4291 54.8444C84.4709 56.0198 85.1947 57.3691 85.1947 60.0001C85.1948 62.6312 84.4711 63.9805 82.4301 65.155Z" fill="black"/>
<path d="M61.2987 57.0164C59.6098 57.0164 58.1417 57.9798 57.467 59.5309C56.7961 61.0736 57.0901 62.7945 58.235 64.0228C58.2889 64.0805 58.344 64.1376 58.4004 64.194C58.7054 64.4986 59.1048 64.6508 59.5043 64.6508C59.9047 64.6508 60.305 64.4979 60.6101 64.1922C61.2198 63.5815 61.2189 62.5922 60.6083 61.9825C60.5783 61.9525 60.5489 61.922 60.5204 61.8917C60.1067 61.4476 60.2512 60.9645 60.3326 60.7775C60.4158 60.5862 60.6764 60.1415 61.2987 60.1415C62.1617 60.1415 62.8612 59.4419 62.8612 58.579C62.8612 57.7161 62.1617 57.0164 61.2987 57.0164Z" fill="black"/>
<path d="M76.7013 57.0164C75.8385 57.0164 75.1388 57.7159 75.1388 58.5789C75.1388 59.4417 75.8385 60.1414 76.7013 60.1414C77.3233 60.1414 77.584 60.5861 77.6672 60.7772C77.7488 60.9644 77.8932 61.4475 77.4808 61.89C77.4515 61.9214 77.4214 61.9525 77.3908 61.9833C76.7807 62.5934 76.7807 63.5828 77.3908 64.1931C77.696 64.4981 78.0958 64.6508 78.4957 64.6508C78.8957 64.6508 79.2954 64.4981 79.6005 64.1931C79.6561 64.1375 79.7107 64.0809 79.7655 64.0223C80.9099 62.7945 81.2039 61.0734 80.5329 59.5308C79.8582 57.9798 78.3902 57.0164 76.7013 57.0164Z" fill="black"/>
<path d="M95.3123 34.1203C95.8612 34.4856 96.6075 34.463 97.1306 34.06C97.6257 33.6784 97.8504 33.0202 97.6874 32.4163C97.5131 31.7702 96.9317 31.2972 96.2625 31.2609C95.5993 31.225 94.97 31.63 94.7265 32.247C94.4593 32.9241 94.7095 33.7145 95.3123 34.1203Z" fill="black"/>
<path d="M101.998 37.3848C101.509 36.6733 100.536 36.4927 99.8252 36.9811C99.1138 37.4695 98.933 38.4423 99.4214 39.1536C103.349 44.8736 105.554 51.5111 105.843 58.4375H95.527C94.7463 45.0259 83.9741 34.2537 70.5625 33.4731V23.1575C77.44 23.4441 84.0363 25.6217 89.7295 29.4987L89.8673 29.593C90.5792 30.0797 91.5517 29.8977 92.0391 29.1855C92.5263 28.4733 92.3438 27.5009 91.6316 27.0138L91.4884 26.9158C84.8447 22.3914 77.0684 20 69 20C58.3156 20 48.2706 24.1608 40.7156 31.7156C33.1606 39.2706 29 49.3156 29 60C29 70.6844 33.1606 80.7294 40.7156 88.2844C48.2706 95.8392 58.3156 100 69 100C79.6844 100 89.7294 95.8392 97.2844 88.2844C104.839 80.7294 109 70.6844 109 60C109 51.8769 106.579 44.0567 101.998 37.3848ZM41.8564 35.0661L45.5252 38.7348C45.8303 39.0398 46.2302 39.1925 46.63 39.1925C47.0298 39.1925 47.4298 39.0398 47.7348 38.7348C48.345 38.1247 48.345 37.1353 47.7348 36.525L44.0661 32.8562C50.2773 27.1462 58.4466 23.5345 67.4375 23.1577V33.4731C54.0258 34.2537 43.2537 45.0259 42.473 58.4375H32.1577C32.5345 49.4466 36.1462 41.2773 41.8564 35.0661ZM67.4375 96.8423C58.4466 96.4655 50.2773 92.8538 44.0661 87.1436L47.7348 83.4748C48.345 82.8647 48.3452 81.8753 47.7348 81.265C47.1247 80.6552 46.1353 80.655 45.5252 81.265L41.8564 84.9337C36.1462 78.7227 32.5345 70.5534 32.1577 61.5625H42.473C43.2537 74.9741 54.0258 85.7463 67.4375 86.5269V96.8423ZM45.5525 60C45.5525 47.0711 56.0709 36.5525 69 36.5525C81.9289 36.5525 92.4475 47.0709 92.4475 60C92.4475 72.9291 81.9289 83.4475 69 83.4475C56.0709 83.4475 45.5525 72.9289 45.5525 60ZM96.1436 84.9339L92.4748 81.2652C91.8645 80.6552 90.8755 80.6552 90.265 81.2652C89.6548 81.8753 89.6548 82.8647 90.265 83.475L93.9337 87.1438C87.7225 92.8539 79.5533 96.4656 70.5623 96.8425V86.5272C83.9739 85.7466 94.7461 74.9744 95.5267 61.5628H105.842C105.465 70.5534 101.854 78.7227 96.1436 84.9339Z" fill="black"/>
</svg>
