<svg width="132" height="132" viewBox="0 0 132 132" fill="none" xmlns="http://www.w3.org/2000/svg">
<path d="M113.686 20.3158C101.228 7.31172 83.9897 -0.0271653 65.9806 0.0059711C29.5864 -0.0398676 0.0455247 29.4264 -0.000313963 65.821C-0.0229572 83.8168 7.3151 101.039 20.3095 113.489C20.3474 113.526 20.3615 113.583 20.399 113.616C20.7806 113.983 21.1954 114.295 21.582 114.648C22.6423 115.59 23.7027 116.566 24.8197 117.476C25.4181 117.947 26.0402 118.418 26.653 118.852C27.7086 119.639 28.7643 120.426 29.8669 121.152C30.6164 121.623 31.3893 122.094 32.1572 122.565C33.175 123.178 34.1885 123.795 35.2394 124.356C36.1302 124.828 37.0396 125.233 37.9445 125.661C38.9341 126.133 39.9097 126.604 40.9229 127.028C41.936 127.452 42.9541 127.782 43.9814 128.15C45.0086 128.517 45.8947 128.857 46.8797 129.158C47.992 129.493 49.1324 129.752 50.2635 130.03C51.2059 130.261 52.1202 130.525 53.0911 130.713C54.3917 130.973 55.7114 131.138 57.031 131.317C57.8465 131.43 58.6428 131.59 59.4674 131.67C61.626 131.882 63.803 132 65.9991 132C68.1952 132 70.3726 131.882 72.5309 131.67C73.3557 131.59 74.1521 131.43 74.9672 131.317C76.2869 131.138 77.6063 130.973 78.9071 130.713C79.8496 130.525 80.7923 130.242 81.7348 130.03C82.8658 129.752 84.0063 129.493 85.1186 129.158C86.1035 128.857 87.0554 128.489 88.0169 128.15C88.9784 127.81 90.0716 127.443 91.0754 127.028C92.0791 126.613 93.0641 126.128 94.0538 125.661C94.9587 125.233 95.8683 124.827 96.7588 124.356C97.8098 123.795 98.823 123.178 99.8411 122.565C100.609 122.094 101.382 121.665 102.131 121.152C103.234 120.426 104.29 119.639 105.345 118.852C105.958 118.38 106.58 117.956 107.179 117.476C108.296 116.58 109.356 115.628 110.416 114.648C110.803 114.295 111.217 113.984 111.599 113.616C111.637 113.583 111.651 113.526 111.689 113.489C137.97 88.3109 138.864 46.596 113.686 20.3158ZM103.094 108.554C102.236 109.308 101.35 110.025 100.455 110.717C99.9269 111.123 99.399 111.523 98.8569 111.91C98.0039 112.527 97.1369 113.112 96.2554 113.672C95.6145 114.082 94.9595 114.478 94.2996 114.865C93.47 115.336 92.6264 115.807 91.7735 116.279C91.0193 116.665 90.2511 117.028 89.4785 117.386C88.7059 117.744 87.8526 118.126 87.0184 118.461C86.1842 118.795 85.2983 119.111 84.4263 119.403C83.6299 119.676 82.8335 119.959 82.0275 120.199C81.085 120.482 80.1001 120.713 79.1245 120.949C78.3609 121.128 77.6071 121.331 76.8342 121.482C75.7172 121.698 74.5768 121.849 73.4316 122.005C72.7813 122.089 72.1357 122.207 71.4804 122.273C69.6706 122.447 67.8374 122.551 65.9853 122.551C64.1333 122.551 62.3 122.448 60.4902 122.273C59.8352 122.207 59.1896 122.089 58.539 122.005C57.3939 121.849 56.2534 121.698 55.1365 121.482C54.3636 121.331 53.6094 121.128 52.8462 120.949C51.8706 120.713 50.8997 120.478 49.9432 120.199C49.1374 119.959 48.3407 119.676 47.5444 119.403C46.6726 119.102 45.8006 118.795 44.9523 118.461C44.104 118.126 43.3029 117.758 42.4922 117.386C41.6814 117.014 40.951 116.665 40.1972 116.279C39.3442 115.836 38.5006 115.369 37.6711 114.865C37.0114 114.478 36.3561 114.082 35.7152 113.672C34.8341 113.112 33.9667 112.527 33.1137 111.91C32.5717 111.524 32.044 111.123 31.516 110.717C30.6205 110.025 29.7346 109.304 28.877 108.554C28.6696 108.399 28.481 108.201 28.2786 108.022C28.4893 91.9899 38.7883 77.834 53.9772 72.6995C61.5718 76.3122 70.3894 76.3122 77.984 72.6995C93.1726 77.834 103.472 91.9896 103.683 108.022C103.485 108.201 103.296 108.38 103.094 108.554ZM49.5469 37.792C54.6496 28.717 66.1427 25.497 75.2177 30.5997C84.2926 35.7024 87.5127 47.1955 82.4099 56.2705C80.7169 59.2815 78.229 61.7695 75.2177 63.4627C75.1942 63.4627 75.1658 63.4627 75.1376 63.4909C73.8878 64.1865 72.567 64.7459 71.1977 65.1593C70.9527 65.23 70.7263 65.3242 70.4673 65.3855C69.9959 65.5081 69.5011 65.5929 69.0156 65.6776C68.1016 65.8375 67.1769 65.9303 66.2493 65.9557H65.712C64.7844 65.9303 63.8596 65.8375 62.9456 65.6776C62.4742 65.5929 61.9747 65.5081 61.4942 65.3855C61.2443 65.3242 61.0229 65.23 60.7639 65.1593C59.3945 64.7459 58.0737 64.1868 56.8239 63.4909L56.7392 63.4627C47.6642 58.36 44.4442 46.8669 49.5469 37.792ZM112.043 98.6765C109.019 84.5706 99.7301 72.612 86.811 66.1918C97.3718 54.6877 96.607 36.8004 85.1028 26.2395C73.5987 15.6787 55.7114 16.4436 45.1505 27.9477C35.2223 38.7629 35.2223 55.3769 45.1505 66.1918C32.2315 72.6123 22.9428 84.5706 19.9185 98.6765C1.84704 73.2214 7.83258 37.9361 33.2877 19.8646C58.7428 1.79313 94.0281 7.77867 112.1 33.2338C118.893 42.8027 122.54 54.2489 122.534 65.9841C122.534 77.7092 118.866 89.1404 112.043 98.6765Z" fill="#FD6B0D"/>
</svg>
