<svg width="137" height="118" viewBox="0 0 137 118" fill="none"  opacity="0.7"   xmlns="http://www.w3.org/2000/svg">
<rect  width="137" height="118" rx="59" fill="#FB9A2B" fill-opacity="0.2"/>
<path d="M51.0027 71.5041L45.6088 76.8076C43.6973 78.6872 42.8668 81.3869 43.3971 83.9983L46.5485 99.5156L55.2769 91.5542" fill="#FB9A2B"/>
<path d="M81.7227 91.5542L90.4512 99.5156L93.6031 83.9951C94.133 81.3856 93.3041 78.6875 91.395 76.8081L86.2184 71.7118" fill="#FB9A2B"/>
<path d="M53.2927 83.319C54.1433 87.4627 54.8999 91.1478 54.8999 91.1478H82.2671C82.2671 91.1478 82.9337 87.5522 83.7104 83.319" fill="#f78f1e"/>
<path d="M78.7673 83.319H83.7104C84.719 77.8218 85.9136 71.2494 86.0757 70.0788C87.1749 60.7325 85.9525 53.0096 82.112 44.3294L82.0511 44.3292C81.7996 43.7594 81.5285 43.1866 81.2406 42.6133H55.7655C55.4873 43.1545 55.2145 43.7089 54.9485 44.2761C54.9615 44.2915 54.9746 44.3068 54.9879 44.3221C53.5011 47.4979 52.2276 51.0839 51.3901 55.0586C50.3272 60.1035 50.3501 66.7905 50.9544 71.9202C50.9569 71.9391 52.202 78.006 53.2926 83.319H65.5938" fill="#E5ECEC"/>
<path d="M72.3545 84.804C71.7265 84.804 71.1502 84.4018 70.9386 83.819C70.7294 83.2426 70.9094 82.5841 71.3817 82.1881C71.874 81.7753 72.5989 81.7217 73.148 82.0585C73.6732 82.3806 73.9503 83.0107 73.8282 83.6091C73.6886 84.2938 73.0639 84.804 72.3545 84.804Z" fill="black"/>
<path d="M68.5227 26.4844C67.8973 27.0588 60.9091 32.6053 55.7656 42.6131H81.2407C77.9607 36.0841 72.4752 29.4987 68.5227 26.4844Z" fill="#f78f1e"/>
<path d="M61.9664 74.3553C58.0502 72.1233 55.4155 67.947 55.4155 63.1631C55.4155 56.0307 61.2741 50.2479 68.5 50.2479C75.7259 50.2479 81.5844 56.0307 81.5844 63.1631C81.5844 67.947 78.9497 72.1233 75.0335 74.3553" fill="#FFD89E"/>
<path d="M68.5002 66.9061C71.4592 66.9061 73.858 64.5385 73.858 61.6179C73.858 58.6973 71.4592 56.3297 68.5002 56.3297C65.5411 56.3297 63.1423 58.6973 63.1423 61.6179C63.1423 64.5385 65.5411 66.9061 68.5002 66.9061Z" fill="#FFCBBE"/>
<path d="M75.0337 68.966V74.3553C73.1115 75.451 70.8795 76.0784 68.5 76.0784C66.1207 76.0784 63.8886 75.451 61.9663 74.3553V68.966C61.9663 67.9929 62.7665 67.2032 63.7523 67.2032H73.2476C74.2337 67.2032 75.0337 67.993 75.0337 68.966Z" fill="#F5737F"/>
<path d="M92.4571 75.7572L87.4766 70.854C87.5182 70.6008 87.5479 70.4088 87.5658 70.2798C87.5672 70.2699 87.5685 70.2599 87.5696 70.25C88.6959 60.6731 87.4759 52.7436 83.4901 43.7353C83.4335 43.6074 82.8291 42.4341 82.5879 41.9538C79.0495 34.91 73.2963 28.2492 69.4421 25.3098C68.8595 24.8655 68.0366 24.9026 67.4979 25.398C67.4577 25.4348 67.3866 25.4952 67.2879 25.5801C62.07 30.0628 57.6219 35.7206 54.4244 41.9418C54.4239 41.9425 54.4238 41.9433 54.4233 41.9439C54.1328 42.5091 53.4846 43.9104 53.4631 44.0438C51.8831 47.4846 50.6909 51.0864 49.9176 54.7564C48.8213 59.9611 48.8891 66.3816 49.3469 71.0369L44.5473 75.756C42.2727 77.9925 41.2915 81.1829 41.9226 84.2901L45.0739 99.8073C45.1808 100.334 45.5671 100.762 46.0846 100.928C46.2368 100.976 46.3931 101 46.5483 101C46.9211 101 47.287 100.863 47.5691 100.606L56.2975 92.6442C56.3017 92.6403 56.3058 92.6362 56.31 92.6321H80.6895C80.6937 92.6362 80.6978 92.6403 80.702 92.6442L89.4304 100.606C89.7125 100.863 90.0784 101 90.4512 101C90.6064 101 90.7628 100.976 90.9149 100.928C91.4322 100.762 91.8187 100.334 91.9257 99.8075L95.0777 84.2868C95.7083 81.182 94.7286 77.9932 92.4571 75.7572ZM68.5595 28.4355C71.6706 31.1024 75.7316 35.876 78.7402 41.1289H58.2812C61.0222 36.3715 64.5346 32.0308 68.5595 28.4355ZM52.8624 55.3608C53.6151 51.789 54.7895 48.2847 56.3532 44.9448C56.4105 44.8224 56.4499 44.6948 56.4715 44.5656C56.546 44.4097 56.6216 44.2535 56.6983 44.0977H80.2953C80.4266 44.3754 80.7991 45.1624 80.8837 45.2651C84.5201 53.6128 85.6268 61.0014 84.5837 69.8918C84.4598 70.7738 83.7073 74.9938 82.4543 81.8347H78.7672C77.9368 81.8347 77.2633 82.4994 77.2633 83.319C77.2633 84.1387 77.9368 84.8034 78.7672 84.8034H81.9093C81.5385 86.8196 81.2159 88.5666 81.0132 89.6634H56.1297L55.132 84.8034H65.5941C66.4245 84.8034 67.098 84.1387 67.098 83.319C67.098 82.4994 66.4245 81.8347 65.5941 81.8347H54.5226C53.3536 76.1391 52.6399 72.6606 52.4699 71.8291C52.5444 71.5004 52.5044 71.1518 52.3499 70.8445C51.9051 66.4132 51.8261 60.28 52.8624 55.3608ZM47.496 96.63L44.8716 83.7065C44.4392 81.5774 45.1116 79.3917 46.6701 77.8591L49.9715 74.6129C50.3087 76.2574 50.8729 79.006 51.8187 83.6137L53.3876 91.2561L47.496 96.63ZM92.1287 83.7033L89.5035 96.63L83.7524 91.3842C83.8181 91.0295 84.4547 87.5927 85.1904 83.5835C85.9024 79.7037 86.4574 76.649 86.8534 74.4331L90.3333 77.8589C91.8894 79.3912 92.5606 81.5759 92.1287 83.7033Z" fill="black"/>
<path d="M61.2143 75.6409C63.4202 76.8982 65.9396 77.5628 68.5 77.5628C71.0604 77.5628 73.5797 76.8981 75.7856 75.6409C80.29 73.0736 83.0883 68.2924 83.0883 63.1631C83.0883 55.2232 76.5439 48.7635 68.5 48.7635C60.456 48.7635 53.9116 55.2232 53.9116 63.1631C53.9118 68.2924 56.7099 73.0736 61.2143 75.6409ZM64.6464 61.6179C64.6464 59.5203 66.3751 57.8139 68.5001 57.8139C70.6251 57.8139 72.3539 59.5203 72.3539 61.6179C72.3539 63.7155 70.6251 65.4219 68.5001 65.4219C66.3751 65.4219 64.6464 63.7155 64.6464 61.6179ZM73.5298 73.4623C71.9696 74.2048 70.2474 74.594 68.5001 74.594C66.7529 74.594 65.0306 74.2048 63.4705 73.4623V68.966C63.4705 68.8125 63.5971 68.6875 63.7526 68.6875H73.2478C73.4033 68.6875 73.5299 68.8125 73.5299 68.966V73.4623H73.5298ZM68.5001 51.7323C74.8857 51.7323 80.0806 56.8602 80.0806 63.1631C80.0806 66.2922 78.7683 69.2581 76.5376 71.3891V68.966C76.5376 67.3979 75.4058 66.086 73.9061 65.7843C74.8176 64.6345 75.3617 63.1878 75.3617 61.6179C75.3617 57.8834 72.2835 54.8452 68.5001 54.8452C64.7167 54.8452 61.6385 57.8834 61.6385 61.6179C61.6385 63.1878 62.1825 64.6345 63.0942 65.7843C61.5945 66.0862 60.4626 67.3981 60.4626 68.966V71.3891C58.2319 69.2581 56.9196 66.2922 56.9196 63.1631C56.9196 56.8602 62.1145 51.7323 68.5001 51.7323Z" fill="black"/>
<defs>
<clipPath id="clip0">
<rect width="77" height="76" fill="white" transform="translate(30 25)"/>
</clipPath>
</defs>
</svg>
